<?xml version="1.0" encoding="UTF-8"?>
<svg xmlns="http://www.w3.org/2000/svg" xmlns:xlink="http://www.w3.org/1999/xlink" width="144pt" height="144pt" viewBox="0 0 144 144" version="1.1">
<g id="surface1">
<path style=" stroke:none;fill-rule:nonzero;fill:rgb(64.705882%,16.470588%,16.470588%);fill-opacity:1;" d="M 68.640625 7.082031 C 51.335938 8.925781 38.617188 14.820312 27.335938 26.175781 C -14.542969 68.359375 16.65625 140.070312 75.839844 137.621094 C 129.742188 135.414062 157.152344 71.003906 121.847656 29.546875 C 109.105469 14.605469 86.734375 5.144531 68.640625 7.082031 Z M 75.144531 19.625 C 76.320312 20.8125 76.320312 20.839844 76.320312 30.953125 L 76.320312 41.117188 L 78.839844 41.605469 C 81.9375 42.234375 81.71875 42.40625 83.257812 38.449219 C 85.222656 33.476562 85.632812 32.992188 87.839844 32.992188 C 91.992188 32.992188 92.015625 35.003906 87.910156 44.636719 C 85.679688 49.875 84.9375 50.3125 80.734375 49.003906 C 79.105469 48.46875 76.34375 47.910156 74.59375 47.742188 C 70.054688 47.257812 69.601562 46.648438 69.601562 40.898438 C 69.601562 36.460938 69.574219 36.363281 68.519531 36.582031 C 63.625 37.601562 62.351562 38.011719 62.566406 38.5 C 65.664062 46.164062 65.761719 46.527344 65.230469 47.71875 C 64.222656 49.949219 61.152344 50.359375 59.710938 48.445312 C 58.921875 47.402344 54.71875 36.847656 54.71875 35.902344 C 54.71875 33.597656 60.167969 31.027344 66.601562 30.300781 L 69.601562 29.960938 L 69.601562 25.132812 L 67.078125 25.472656 C 51.167969 27.65625 37.054688 38.136719 30.382812 52.761719 C 28.585938 56.71875 26.398438 64.625 26.398438 67.269531 L 26.398438 68.894531 L 28.921875 68.917969 C 35.183594 68.992188 36.960938 69.769531 36.960938 72.460938 C 36.960938 75.152344 35.929688 75.6875 30.816406 75.6875 L 26.257812 75.6875 L 26.566406 78.476562 C 26.832031 80.953125 28.128906 86.820312 28.511719 87.1875 C 28.585938 87.28125 30.214844 86.675781 32.160156 85.875 C 37.222656 83.765625 39.40625 84.03125 40.078125 86.871094 C 40.535156 88.761719 38.929688 90.363281 35.089844 91.890625 C 33.214844 92.621094 31.585938 93.394531 31.464844 93.613281 C 31.175781 94.050781 34.175781 99.167969 36.167969 101.691406 L 37.558594 103.4375 L 40.753906 100.238281 C 44.230469 96.742188 45.769531 96.234375 47.519531 98.003906 C 49.246094 99.753906 48.769531 101.378906 45.601562 104.554688 C 42.097656 108.046875 42.097656 108.195312 45.238281 110.5 C 51.886719 115.398438 61.921875 119.328125 67.800781 119.351562 L 69.601562 119.351562 L 69.601562 88.253906 L 70.777344 87.066406 C 71.566406 86.265625 72.503906 85.875 73.585938 85.875 C 84.816406 85.875 90.457031 70.835938 82.246094 62.78125 C 70.390625 51.136719 52.054688 68.214844 62.640625 81.023438 C 65.113281 84.007812 64.921875 85.003906 61.152344 88.835938 L 57.984375 92.0625 L 59.351562 93.03125 C 60.097656 93.566406 61.65625 94.464844 62.785156 95.046875 C 66.097656 96.742188 66.144531 97.59375 63.335938 104.433594 C 60.121094 112.34375 58.320312 113.871094 55.703125 111.007812 C 54.238281 109.429688 54.359375 108.824219 57.3125 101.789062 L 58.078125 99.96875 L 56.710938 99.265625 C 47.929688 94.65625 41.183594 81.628906 41.976562 70.835938 C 42.601562 62.515625 42.9375 63.582031 39.023438 61.859375 C 33.214844 59.3125 32.808594 58.585938 34.753906 54.144531 C 37.320312 48.300781 43.078125 41.238281 45.265625 41.238281 C 49.105469 41.238281 49.441406 44.902344 45.960938 48.953125 C 44.566406 50.578125 42.960938 52.761719 42.382812 53.804688 L 41.304688 55.699219 L 45.097656 57.25 C 50.832031 59.578125 51.046875 60.015625 49.390625 65.570312 C 47.519531 71.757812 48.695312 80.296875 52.128906 85.535156 L 53.375 87.429688 L 54.960938 85.875 L 56.542969 84.324219 L 55.175781 81.558594 C 52.320312 75.710938 52.273438 69.234375 55.105469 63.484375 L 56.449219 60.71875 L 53.183594 57.347656 C 49.726562 53.78125 49.273438 52.570312 50.664062 50.554688 C 52.152344 48.421875 54.382812 49.050781 58.105469 52.691406 L 61.390625 55.917969 L 62.976562 54.921875 C 70.558594 50.238281 82.054688 52.203125 88.007812 59.238281 C 97.34375 70.277344 92.160156 88.109375 78.527344 91.796875 L 76.320312 92.378906 L 76.320312 100.285156 C 76.320312 109.285156 76.03125 108.824219 80.761719 107.585938 C 83.449219 106.882812 83.425781 107.054688 81.550781 102.152344 C 79.726562 97.398438 79.945312 96.742188 84.070312 94.535156 C 98.328125 86.894531 101.6875 68.820312 91.222656 56.011719 C 88.34375 52.496094 88.488281 52.035156 94.222656 46.238281 C 99.550781 40.851562 100.800781 40.269531 102.71875 42.210938 C 104.496094 44.003906 103.992188 45.605469 100.585938 49.027344 C 96.886719 52.738281 97.007812 52.058594 99.359375 55.988281 C 108 70.351562 103.824219 89.683594 90.214844 98.515625 C 87.457031 100.285156 87.574219 99.945312 88.800781 102.394531 L 89.785156 104.3125 L 91.078125 103.511719 C 91.800781 103.050781 93.960938 101.402344 95.878906 99.847656 C 99.625 96.792969 101.136719 96.40625 102.71875 98.003906 C 106.800781 102.128906 93.671875 111.882812 80.761719 114.332031 L 76.320312 115.179688 L 76.320312 117.265625 C 76.320312 119.71875 76.96875 119.863281 82.726562 118.625 C 95.472656 115.910156 108.335938 106.300781 113.832031 95.433594 L 114.769531 93.589844 L 112.078125 92.402344 C 110.617188 91.746094 109.222656 91.214844 108.984375 91.214844 C 108.046875 91.214844 105.601562 88.640625 105.601562 87.648438 C 105.601562 84.203125 108.40625 83.59375 113.761719 85.898438 C 115.65625 86.726562 117.289062 87.332031 117.359375 87.234375 C 117.71875 86.871094 119.039062 81.023438 119.328125 78.476562 L 119.664062 75.6875 L 115.105469 75.6875 C 109.222656 75.6875 108.886719 75.371094 108.40625 69.453125 C 108.214844 67.003906 107.519531 63.535156 106.777344 61.203125 C 105.3125 56.742188 105.527344 55.1875 107.761719 54.339844 C 111.070312 53.078125 113.230469 56.910156 114.9375 67.074219 C 115.246094 68.871094 115.273438 68.894531 117.433594 68.894531 L 119.640625 68.894531 L 119.28125 66.105469 C 117 47.59375 102.886719 31.511719 84.742188 26.707031 C 79.414062 25.300781 77.710938 22.65625 80.617188 20.304688 C 84.265625 17.320312 100.488281 24.648438 109.464844 33.308594 C 141.023438 63.800781 125.28125 117.703125 82.558594 125.464844 C 27.40625 135.460938 -3.648438 63.121094 41.207031 29.136719 C 51.527344 21.324219 71.328125 15.769531 75.144531 19.625 Z M 75.144531 19.625 "/>
</g>
</svg>
